<svg xmlns="http://www.w3.org/2000/svg" width="24" height="24" viewBox="0 0 24 24">
    <path data-name="사각형 86" style="fill:none" d="M0 0h24v24H0z"/>
    <g data-name="그룹 426">
        <path data-name="패스 5782" d="M19 3H5a2.006 2.006 0 0 0-2 2v14a2.006 2.006 0 0 0 2 2h14a2.006 2.006 0 0 0 2-2V5a2.006 2.006 0 0 0-2-2zm0 16H5V5h14z"/>
        <path data-name="사각형 87" d="M7 12h2v5H7z"/>
        <path data-name="사각형 88" d="M15 7h2v10h-2z"/>
        <path data-name="사각형 89" d="M11 14h2v3h-2z"/>
        <path data-name="사각형 90" d="M11 10h2v2h-2z"/>
    </g>
</svg>
