<svg xmlns="http://www.w3.org/2000/svg" width="101.393" height="101.534" viewBox="0 0 101.393 101.534">
  <g id="그룹_407" data-name="그룹 407" transform="translate(1 1)">
    <path id="패스_5648" data-name="패스 5648" d="M68.816,118.676a24.428,24.428,0,0,0,.788-6.619l6.555-2.623-2.168-8.782-7.019.731a24.581,24.581,0,0,0-4.918-6.669l2.783-6.5L57.1,83.537l-4.449,5.491a24.561,24.561,0,0,0-8.191-1.25l-2.625-6.562-8.784,2.168.738,7.026a24.535,24.535,0,0,0-6.669,4.918l-6.5-2.789-4.679,7.742,5.5,4.456a24.561,24.561,0,0,0-1.25,8.191l-6.566,2.621,2.165,8.782,7.033-.731a24.523,24.523,0,0,0,4.918,6.669l-2.8,6.5,7.742,4.679,4.46-5.491q1.035.345,2.1.6" transform="translate(14.003 -81.216)" fill="none" stroke="#505050" stroke-linejoin="round" stroke-width="2"/>
    <ellipse id="타원_27" data-name="타원 27" cx="7.663" cy="7.663" rx="7.663" ry="7.663" transform="translate(51.225 23.611)" fill="none" stroke="#505050" stroke-linejoin="round" stroke-width="2"/>
    <ellipse id="타원_28" data-name="타원 28" cx="20.8" cy="20.8" rx="20.8" ry="20.8" transform="translate(57.793 43.317)" fill="none" stroke="#ff4343" stroke-linejoin="round" stroke-width="2"/>
    <path id="패스_5649" data-name="패스 5649" d="M32.931,108.7a11.987,11.987,0,0,1,8.681-3.7" transform="translate(36.981 -52.925)" fill="none" stroke="#ff4343" stroke-linecap="round" stroke-linejoin="round" stroke-width="2"/>
    <path id="패스_5650" data-name="패스 5650" d="M31.646,113.864a12.024,12.024,0,0,1-.25-2.448,11.891,11.891,0,0,1,.118-1.686" transform="translate(35.155 -47.299)" fill="none" stroke="#ff4343" stroke-linecap="round" stroke-linejoin="round" stroke-width="2"/>
    <line id="선_27" data-name="선 27" y1="19.34" x2="16.787" transform="translate(49.765 80.538)" fill="none" stroke="#ff4343" stroke-linejoin="round" stroke-width="2"/>
    <path id="패스_5651" data-name="패스 5651" d="M33.511,109.111a20.411,20.411,0,0,0-6.822-1.042L24.5,102.6l-7.315,1.8.615,5.852a20.451,20.451,0,0,0-5.555,4.1l-5.417-2.323-3.9,6.448,4.578,3.711a20.454,20.454,0,0,0-1.042,6.82L1,131.2l1.8,7.315,5.859-.609a20.433,20.433,0,0,0,4.094,5.553l-2.33,5.412,6.448,3.9,3.718-4.574a20.454,20.454,0,0,0,6.82,1.042l2.179,5.463,7.313-1.8-.6-5.85a20.485,20.485,0,0,0,5.555-4.1l5.406,2.323,3.9-6.448-4.569-3.709a20.42,20.42,0,0,0,1.042-6.822l5.461-2.183" transform="translate(-1 -55.775)" fill="none" stroke="#505050" stroke-linejoin="round" stroke-width="2"/>
    <ellipse id="타원_29" data-name="타원 29" cx="7.663" cy="7.663" rx="7.663" ry="7.663" transform="translate(18.383 65.212)" fill="none" stroke="#505050" stroke-linejoin="round" stroke-width="2"/>
  </g>
</svg>
