<svg xmlns="http://www.w3.org/2000/svg" xmlns:xlink="http://www.w3.org/1999/xlink" width="85.144" height="59.335" viewBox="0 0 85.144 59.335">
  <defs>
    <clipPath id="clip-path">
      <rect id="사각형_78" data-name="사각형 78" width="85.144" height="59.335" fill="none"/>
    </clipPath>
  </defs>
  <g id="그룹_421" data-name="그룹 421" transform="translate(85.144 59.335) rotate(180)">
    <g id="그룹_420" data-name="그룹 420" clip-path="url(#clip-path)">
      <path id="패스_5775" data-name="패스 5775" d="M474.052,16.184C471.314,1.709,456.826-.145,454.074.009c-11.939.664-17.84,6.984-17.84,18.254,0,12.657,11.511,17.32,17.84,16.632s6.7-3.793,9.039-2.279,2.192,11.57-4.853,17.372-17.237,6.183-17.237,6.183l.413,3.164c19.078.151,38.112-14.091,32.616-43.15" transform="translate(-389.869 0)" fill="#231f20"/>
      <path id="패스_5776" data-name="패스 5776" d="M17.84.008C5.9.672,0,6.992,0,18.261c0,12.657,11.511,17.32,17.84,16.632s6.7-3.793,9.039-2.28,2.192,11.57-4.853,17.372S4.789,56.169,4.789,56.169L5.2,59.334c19.077.151,38.112-14.091,32.616-43.15C35.08,1.708,20.592-.145,17.84.008" transform="translate(0 0)" fill="#231f20"/>
    </g>
  </g>
</svg>
