<svg xmlns="http://www.w3.org/2000/svg" width="95.17" height="103.428" viewBox="0 0 95.17 103.428">
  <g id="그룹_406" data-name="그룹 406" transform="translate(0.856 1.316)">
    <path id="패스_5645" data-name="패스 5645" d="M182.471,31.156c0,4.427,5.463,19.745,6.507,21.183,3.365,4.624,8.377,4.53,10.761,9.229l2.273,4.28" transform="translate(-136.44 34.892)" fill="none" stroke="#505050" stroke-linecap="round" stroke-miterlimit="10" stroke-width="2"/>
    <line id="선_25" data-name="선 25" x2="5.539" y2="5.539" transform="translate(50.369 42.051)" fill="none" stroke="#ff4343" stroke-linecap="round" stroke-miterlimit="10" stroke-width="2"/>
    <line id="선_26" data-name="선 26" x2="14.856" y2="14.856" transform="translate(41.055 51.029)" fill="none" stroke="#ff4343" stroke-linecap="round" stroke-miterlimit="10" stroke-width="2"/>
    <circle id="타원_26" data-name="타원 26" cx="27.5" cy="27.5" r="27.5" transform="translate(0.144 -0.316)" fill="none" stroke="#ff4343" stroke-linecap="round" stroke-miterlimit="10" stroke-width="2"/>
    <path id="패스_5646" data-name="패스 5646" d="M165.665,18.862A18.628,18.628,0,0,1,181.276,5.07" transform="translate(-156.43 3.863)" fill="none" stroke="#ff4343" stroke-linecap="round" stroke-miterlimit="10" stroke-width="2"/>
    <path id="패스_5647" data-name="패스 5647" d="M166.7,19.069a18.411,18.411,0,0,1-1.2-4.232" transform="translate(-156.625 15.481)" fill="none" stroke="#ff4343" stroke-linecap="round" stroke-miterlimit="10" stroke-width="2"/>
    <path id="패스_5644" data-name="패스 5644" d="M186.771,48.511s1.325-14.039,1.552-16.642c-.328-1.951-.913-5.428-1.3-7.869,1.712-3.751,6.822-4.175,8.213-2.485a76.576,76.576,0,0,1,4.948,7.28c2.509.35,4.834.519,7.4,3.365a10.352,10.352,0,0,1,6.971,3.166c2.6.466,4.889,1.66,5.38,3.972s1.149,16.872.449,20.658-3.092,6.03.771,13.183c.871,1.6,3.111,5.3,3.111,5.3" transform="translate(-131.325 22.298)" fill="none" stroke="#505050" stroke-linecap="round" stroke-miterlimit="10" stroke-width="2"/>
  </g>
</svg>
