<svg xmlns="http://www.w3.org/2000/svg" width="106.308" height="23.904" viewBox="0 0 106.308 23.904"><path d="M6.192-17.532H0v-5.652H20.16v5.652H13.932V0H6.192Zm13.968,4.14H34.7v5.9H20.16Zm24.156-9.792h8.1L61.344,0H53.28l-1.8-4.608H45.252L43.488,0H35.424Zm6.228,13.176-2.2-5.616-2.16,5.616ZM68.976.36a25.634,25.634,0,0,1-4.59-.4A14.765,14.765,0,0,1,60.7-1.152V-7.2A20.158,20.158,0,0,0,64.44-5.9a15.693,15.693,0,0,0,3.708.5,6.218,6.218,0,0,0,2.25-.306,1.077,1.077,0,0,0,.738-1.062,1.168,1.168,0,0,0-.684-1.062A17,17,0,0,0,67.9-8.82q-.54-.144-1.368-.432a14.352,14.352,0,0,1-3.636-1.71,5.389,5.389,0,0,1-1.872-2.214,7.99,7.99,0,0,1-.576-3.24q0-7.128,9.9-7.128a25.95,25.95,0,0,1,3.888.324,26.627,26.627,0,0,1,3.564.756v6.084a16.782,16.782,0,0,0-6.156-1.332,9.227,9.227,0,0,0-2.43.252q-.882.252-.882.972a.906.906,0,0,0,.378.756,3.494,3.494,0,0,0,1.08.5q.7.216,2.466.684A13.125,13.125,0,0,1,76.5-12.708a5.6,5.6,0,0,1,2.016,2.484,9.557,9.557,0,0,1,.54,3.42,6.194,6.194,0,0,1-2.574,5.238Q73.908.36,68.976.36Zm18.072,0a25.634,25.634,0,0,1-4.59-.4,14.765,14.765,0,0,1-3.69-1.116V-7.2a20.158,20.158,0,0,0,3.744,1.3,15.693,15.693,0,0,0,3.708.5,6.218,6.218,0,0,0,2.25-.306,1.077,1.077,0,0,0,.738-1.062,1.168,1.168,0,0,0-.684-1.062,17,17,0,0,0-2.556-.99q-.54-.144-1.368-.432a14.352,14.352,0,0,1-3.636-1.71,5.389,5.389,0,0,1-1.872-2.214,7.99,7.99,0,0,1-.576-3.24q0-7.128,9.9-7.128a25.95,25.95,0,0,1,3.888.324,26.627,26.627,0,0,1,3.564.756v6.084a16.782,16.782,0,0,0-6.156-1.332,9.227,9.227,0,0,0-2.43.252q-.882.252-.882.972a.906.906,0,0,0,.378.756,3.494,3.494,0,0,0,1.08.5q.7.216,2.466.684a13.125,13.125,0,0,1,4.248,1.836,5.6,5.6,0,0,1,2.016,2.484,9.557,9.557,0,0,1,.54,3.42,6.194,6.194,0,0,1-2.574,5.238Q91.98.36,87.048.36Zm11.52-23.544h7.74V0h-7.74Z" transform="translate(0 23.544)" fill="#ff4343"/></svg>